# xmcd CD database file
#
# Track frame offsets:
#	183
#	43378
#	67485
#	80608
#	107118
#	121580
#	159145
#	206285
#	225895
#	256788
#	294633
#	320800
#
# Disc length: 4488 seconds
#
# Revision: 0
# Processed by: cddbd v1.5.2PL0 Copyright (c) Steve Scherf et al.
# Submitted via: CDex 1.70beta2
#
DISCID=a411860c
DTITLE=Various Artist - Jazz Drammer
DYEAR=1900
DGENRE=Jazz
TTITLE0=Moanin`
TTITLE1=St Louis Blues
TTITLE2=One Sore and four drummers ago
TTITLE3=Decidedly
TTITLE4=Ginger bread boy
TTITLE5=Mayreh
TTITLE6=Drum Battle Section 2
TTITLE7=Drums unlimited
TTITLE8=Keikos birthday
TTITLE9=Love song
TTITLE10=Move
TTITLE11=The drum also waltzes
EXTD=
EXTT0=
EXTT1=
EXTT2=
EXTT3=
EXTT4=
EXTT5=
EXTT6=
EXTT7=
EXTT8=
EXTT9=
EXTT10=
EXTT11=
PLAYORDER=
